<svg width="257" height="43" viewBox="0 0 257 43" fill="none" xmlns="http://www.w3.org/2000/svg">
<g clip-path="url(#clip0_2106_52)">
<path d="M20 1.5C31.0461 1.5 40.0001 10.454 40.0001 21.5V35.5C40.0001 37.0913 39.3679 38.6174 38.2427 39.7426C37.1175 40.8679 35.5914 41.5 34.0001 41.5H21V32.726C21 30.724 21.1221 28.65 22.1721 26.946C22.9238 25.7248 23.9294 24.6796 25.1206 23.8813C26.3118 23.0829 27.6608 22.5501 29.0761 22.319L29.4591 22.257C29.6169 22.203 29.754 22.101 29.8511 21.9653C29.9481 21.8296 30.0003 21.6669 30.0003 21.5C30.0003 21.3331 29.9481 21.1704 29.8511 21.0347C29.754 20.899 29.6169 20.797 29.4591 20.743L29.0761 20.681C27.0082 20.3432 25.0987 19.3644 23.6172 17.8829C22.1356 16.4013 21.1568 14.4918 20.819 12.424L20.757 12.041C20.7031 11.8831 20.6011 11.746 20.4653 11.649C20.3296 11.5519 20.1669 11.4997 20 11.4997C19.8332 11.4997 19.6705 11.5519 19.5348 11.649C19.399 11.746 19.297 11.8831 19.243 12.041L19.181 12.424C18.95 13.8393 18.4172 15.1883 17.6188 16.3795C16.8205 17.5707 15.7753 18.5763 14.554 19.328C12.85 20.378 10.776 20.5 8.77405 20.5H0.0240479C0.547048 9.919 9.29005 1.5 20 1.5Z" fill="#FFE7C2"/>
<path d="M0 22.5H8.774C10.776 22.5 12.85 22.622 14.554 23.672C15.886 24.4928 17.0072 25.614 17.828 26.946C18.878 28.65 19 30.724 19 32.726V41.5H6C4.4087 41.5 2.88258 40.8679 1.75736 39.7426C0.632141 38.6174 0 37.0913 0 35.5L0 22.5ZM40 3.5C40 4.03043 39.7893 4.53914 39.4142 4.91421C39.0391 5.28929 38.5304 5.5 38 5.5C37.4696 5.5 36.9609 5.28929 36.5858 4.91421C36.2107 4.53914 36 4.03043 36 3.5C36 2.96957 36.2107 2.46086 36.5858 2.08579C36.9609 1.71071 37.4696 1.5 38 1.5C38.5304 1.5 39.0391 1.71071 39.4142 2.08579C39.7893 2.46086 40 2.96957 40 3.5Z" fill="#FFE7C2"/>
</g>
<path d="M72.952 11.76V16.128H65.056V19.6H70.88V23.772H65.056V31.5H59.568V11.76H72.952ZM74.3673 23.632C74.3673 22.008 74.6566 20.5893 75.2353 19.376C75.8326 18.1627 76.6353 17.2293 77.6433 16.576C78.67 15.9227 79.8086 15.596 81.0593 15.596C82.142 15.596 83.0753 15.8107 83.8593 16.24C84.6433 16.6693 85.25 17.248 85.6793 17.976V15.792H91.1673V31.5H85.6793V29.316C85.25 30.044 84.634 30.6227 83.8313 31.052C83.0473 31.4813 82.1233 31.696 81.0593 31.696C79.8086 31.696 78.67 31.3693 77.6433 30.716C76.6353 30.0627 75.8326 29.1293 75.2353 27.916C74.6566 26.684 74.3673 25.256 74.3673 23.632ZM85.6793 23.632C85.6793 22.624 85.3993 21.8307 84.8393 21.252C84.298 20.6733 83.626 20.384 82.8233 20.384C82.002 20.384 81.3206 20.6733 80.7793 21.252C80.238 21.812 79.9673 22.6053 79.9673 23.632C79.9673 24.64 80.238 25.4427 80.7793 26.04C81.3206 26.6187 82.002 26.908 82.8233 26.908C83.626 26.908 84.298 26.6187 84.8393 26.04C85.3993 25.4613 85.6793 24.6587 85.6793 23.632ZM93.3986 23.632C93.3986 22.008 93.7346 20.5893 94.4066 19.376C95.0786 18.1627 96.0119 17.2293 97.2066 16.576C98.4199 15.9227 99.8012 15.596 101.351 15.596C103.348 15.596 105.028 16.1467 106.391 17.248C107.753 18.3307 108.631 19.852 109.023 21.812H103.199C102.863 20.7853 102.209 20.272 101.239 20.272C100.548 20.272 99.9972 20.5613 99.5866 21.14C99.1946 21.7 98.9986 22.5307 98.9986 23.632C98.9986 24.7333 99.1946 25.5733 99.5866 26.152C99.9972 26.7307 100.548 27.02 101.239 27.02C102.228 27.02 102.881 26.5067 103.199 25.48H109.023C108.631 27.4213 107.753 28.9427 106.391 30.044C105.028 31.1453 103.348 31.696 101.351 31.696C99.8012 31.696 98.4199 31.3693 97.2066 30.716C96.0119 30.0627 95.0786 29.1293 94.4066 27.916C93.7346 26.7027 93.3986 25.2747 93.3986 23.632ZM121.634 15.652C123.426 15.652 124.845 16.2587 125.89 17.472C126.954 18.6667 127.486 20.2907 127.486 22.344V31.5H121.998V23.072C121.998 22.176 121.765 21.476 121.298 20.972C120.832 20.4493 120.206 20.188 119.422 20.188C118.601 20.188 117.957 20.4493 117.49 20.972C117.024 21.476 116.79 22.176 116.79 23.072V31.5H111.302V10.78H116.79V18.032C117.276 17.3227 117.929 16.7533 118.75 16.324C119.59 15.876 120.552 15.652 121.634 15.652ZM151.022 15.652C153 15.652 154.55 16.2493 155.67 17.444C156.808 18.6387 157.378 20.272 157.378 22.344V31.5H151.89V23.072C151.89 22.232 151.656 21.5787 151.19 21.112C150.723 20.6453 150.088 20.412 149.286 20.412C148.483 20.412 147.848 20.6453 147.382 21.112C146.915 21.5787 146.682 22.232 146.682 23.072V31.5H141.194V23.072C141.194 22.232 140.96 21.5787 140.494 21.112C140.046 20.6453 139.42 20.412 138.618 20.412C137.796 20.412 137.152 20.6453 136.686 21.112C136.219 21.5787 135.986 22.232 135.986 23.072V31.5H130.498V15.792H135.986V17.864C136.471 17.192 137.096 16.66 137.862 16.268C138.646 15.8573 139.542 15.652 140.55 15.652C141.707 15.652 142.734 15.904 143.63 16.408C144.544 16.912 145.263 17.6213 145.786 18.536C146.346 17.6773 147.083 16.9867 147.998 16.464C148.912 15.9227 149.92 15.652 151.022 15.652ZM163.044 31.724C162.074 31.724 161.29 31.4627 160.692 30.94C160.114 30.3987 159.824 29.7173 159.824 28.896C159.824 28.0747 160.114 27.3933 160.692 26.852C161.29 26.3107 162.074 26.04 163.044 26.04C163.996 26.04 164.762 26.3107 165.34 26.852C165.938 27.3933 166.236 28.0747 166.236 28.896C166.236 29.6987 165.938 30.3707 165.34 30.912C164.762 31.4533 163.996 31.724 163.044 31.724ZM184.402 18.34C184.402 19.5347 184.122 20.6267 183.562 21.616C183.021 22.5867 182.19 23.3707 181.07 23.968C179.969 24.5467 178.616 24.836 177.01 24.836H174.294V31.5H168.806V11.76H177.01C178.597 11.76 179.941 12.04 181.042 12.6C182.162 13.16 183.002 13.9347 183.562 14.924C184.122 15.9133 184.402 17.052 184.402 18.34ZM176.478 20.468C178.028 20.468 178.802 19.7587 178.802 18.34C178.802 16.9027 178.028 16.184 176.478 16.184H174.294V20.468H176.478ZM193.915 31.696C192.347 31.696 190.938 31.3693 189.687 30.716C188.455 30.0627 187.484 29.1293 186.775 27.916C186.066 26.7027 185.711 25.2747 185.711 23.632C185.711 22.008 186.066 20.5893 186.775 19.376C187.503 18.1627 188.483 17.2293 189.715 16.576C190.966 15.9227 192.375 15.596 193.943 15.596C195.511 15.596 196.911 15.9227 198.143 16.576C199.394 17.2293 200.374 18.1627 201.083 19.376C201.811 20.5893 202.175 22.008 202.175 23.632C202.175 25.256 201.811 26.684 201.083 27.916C200.374 29.1293 199.394 30.0627 198.143 30.716C196.892 31.3693 195.483 31.696 193.915 31.696ZM193.915 26.936C194.68 26.936 195.315 26.656 195.819 26.096C196.342 25.5173 196.603 24.696 196.603 23.632C196.603 22.568 196.342 21.756 195.819 21.196C195.315 20.636 194.69 20.356 193.943 20.356C193.196 20.356 192.571 20.636 192.067 21.196C191.563 21.756 191.311 22.568 191.311 23.632C191.311 24.7147 191.554 25.536 192.039 26.096C192.524 26.656 193.15 26.936 193.915 26.936ZM209.896 18.564C210.512 17.668 211.259 16.9587 212.136 16.436C213.013 15.9133 213.956 15.652 214.964 15.652V21.504H213.424C212.229 21.504 211.343 21.7373 210.764 22.204C210.185 22.6707 209.896 23.4827 209.896 24.64V31.5H204.408V15.792H209.896V18.564ZM226.199 26.824V31.5H223.819C219.806 31.5 217.799 29.512 217.799 25.536V20.356H215.867V15.792H217.799V11.984H223.315V15.792H226.171V20.356H223.315V25.62C223.315 26.0493 223.409 26.3573 223.595 26.544C223.801 26.7307 224.137 26.824 224.603 26.824H226.199ZM237.984 26.824V31.5H235.604C231.591 31.5 229.584 29.512 229.584 25.536V20.356H227.652V15.792H229.584V11.984H235.1V15.792H237.956V20.356H235.1V25.62C235.1 26.0493 235.194 26.3573 235.38 26.544C235.586 26.7307 235.922 26.824 236.388 26.824H237.984ZM247.81 31.696C246.242 31.696 244.832 31.3693 243.582 30.716C242.35 30.0627 241.379 29.1293 240.67 27.916C239.96 26.7027 239.606 25.2747 239.606 23.632C239.606 22.008 239.96 20.5893 240.67 19.376C241.398 18.1627 242.378 17.2293 243.61 16.576C244.86 15.9227 246.27 15.596 247.838 15.596C249.406 15.596 250.806 15.9227 252.038 16.576C253.288 17.2293 254.268 18.1627 254.978 19.376C255.706 20.5893 256.07 22.008 256.07 23.632C256.07 25.256 255.706 26.684 254.978 27.916C254.268 29.1293 253.288 30.0627 252.038 30.716C250.787 31.3693 249.378 31.696 247.81 31.696ZM247.81 26.936C248.575 26.936 249.21 26.656 249.714 26.096C250.236 25.5173 250.498 24.696 250.498 23.632C250.498 22.568 250.236 21.756 249.714 21.196C249.21 20.636 248.584 20.356 247.838 20.356C247.091 20.356 246.466 20.636 245.962 21.196C245.458 21.756 245.206 22.568 245.206 23.632C245.206 24.7147 245.448 25.536 245.934 26.096C246.419 26.656 247.044 26.936 247.81 26.936Z" fill="white"/>
<defs>
<clipPath id="clip0_2106_52">
<rect width="40" height="40" fill="white" transform="translate(0 1.5)"/>
</clipPath>
</defs>
</svg>
