<svg width="32" height="32" viewBox="0 0 32 32" fill="none" xmlns="http://www.w3.org/2000/svg">
<path d="M14.656 0.426926C15.456 -0.0260738 16.476 -0.0280738 17.256 0.426926L29.2 7.15993C29.947 7.57993 30.447 8.41293 30.44 9.27393V22.7739C30.445 23.6709 29.896 24.5219 29.108 24.9339L17.228 31.6359C16.8217 31.8605 16.3626 31.9721 15.8986 31.9593C15.4345 31.9465 14.9823 31.8096 14.589 31.5629L11.024 29.5029C10.781 29.3579 10.508 29.2429 10.336 29.0079C10.488 28.8039 10.758 28.7779 10.978 28.6879C11.474 28.5299 11.928 28.2879 12.384 28.0319C12.499 27.9519 12.64 27.9819 12.75 28.0539L15.79 29.8119C16.007 29.9369 16.227 29.7719 16.413 29.6669L28.078 23.0839C28.222 23.0139 28.302 22.8619 28.29 22.7039V9.33393C28.306 9.15393 28.203 8.98993 28.04 8.91693L16.19 2.24393C16.1217 2.19669 16.0407 2.17131 15.9577 2.17113C15.8746 2.17095 15.7935 2.19599 15.725 2.24293L3.89201 8.92993C3.73201 9.00293 3.62201 9.16493 3.64201 9.34493V22.7149C3.62801 22.8729 3.71201 23.0219 3.85701 23.0899L7.01901 24.8749C7.61301 25.1949 8.34201 25.3749 8.99601 25.1399C9.2822 25.0321 9.52858 24.8393 9.70213 24.5875C9.87568 24.3356 9.9681 24.0368 9.96701 23.7309L9.97001 10.4409C9.95601 10.2439 10.142 10.0809 10.333 10.1009H11.853C12.053 10.0959 12.21 10.3079 12.183 10.5059L12.18 23.8799C12.181 25.0679 11.693 26.3599 10.594 26.9429C9.24001 27.6429 7.56601 27.4959 6.22801 26.8229L2.82801 24.9429C2.02801 24.5429 1.49101 23.6789 1.49601 22.7829V9.28293C1.49933 8.84415 1.61996 8.41426 1.84537 8.0378C2.07079 7.66134 2.39279 7.35203 2.77801 7.14193L14.656 0.426926ZM18.1 9.78493C19.827 9.68493 21.676 9.71893 23.23 10.5699C24.433 11.2219 25.1 12.5899 25.122 13.9279C25.088 14.1079 24.9 14.2079 24.728 14.1949C24.228 14.1939 23.726 14.2019 23.224 14.1919C23.011 14.1999 22.888 14.0039 22.861 13.8159C22.717 13.1759 22.368 12.5429 21.766 12.2339C20.842 11.7709 19.77 11.7939 18.762 11.8039C18.026 11.8439 17.235 11.9069 16.612 12.3389C16.132 12.6669 15.988 13.3389 16.159 13.8609C16.319 14.2439 16.762 14.3669 17.123 14.4809C19.205 15.0249 21.41 14.9809 23.453 15.6879C24.298 15.9799 25.125 16.5479 25.415 17.4329C25.793 18.6189 25.628 20.0369 24.785 20.9889C24.101 21.7729 23.105 22.1889 22.11 22.4309C20.787 22.7259 19.415 22.7329 18.072 22.6009C16.809 22.4569 15.495 22.1249 14.52 21.2649C13.686 20.5409 13.28 19.4129 13.32 18.3249C13.33 18.1409 13.513 18.0129 13.69 18.0279H15.19C15.392 18.0139 15.54 18.1879 15.55 18.3779C15.643 18.9779 15.872 19.6279 16.404 19.9779C17.43 20.6399 18.717 20.5939 19.891 20.6129C20.864 20.5699 21.956 20.5569 22.751 19.9129C23.171 19.5459 23.294 18.9329 23.181 18.4049C23.058 17.9589 22.581 17.7519 22.181 17.6049C20.126 16.9549 17.896 17.1909 15.861 16.4549C15.035 16.1629 14.236 15.6109 13.919 14.7619C13.476 13.5619 13.679 12.0749 14.612 11.1549C15.512 10.2399 16.832 9.88693 18.082 9.76093L18.1 9.78493Z" fill="#8CC84B"/>
</svg>
